<svg width="283" height="118" viewBox="0 0 283 118" fill="none" xmlns="http://www.w3.org/2000/svg">
<path d="M86.5781 113H84.6934V106.428H77.5254V113H75.6504V98.7812H77.5254V104.895H84.6934V98.7812H86.5781V113ZM96.1484 113C96.0443 112.792 95.9596 112.421 95.8945 111.887C95.0547 112.759 94.0521 113.195 92.8867 113.195C91.8451 113.195 90.9889 112.902 90.3184 112.316C89.6543 111.724 89.3223 110.975 89.3223 110.07C89.3223 108.97 89.7389 108.117 90.5723 107.512C91.4121 106.9 92.5905 106.594 94.1074 106.594H95.8652V105.764C95.8652 105.132 95.6764 104.631 95.2988 104.26C94.9212 103.882 94.3646 103.693 93.6289 103.693C92.9844 103.693 92.444 103.856 92.0078 104.182C91.5716 104.507 91.3535 104.901 91.3535 105.363H89.5371C89.5371 104.836 89.7227 104.328 90.0938 103.84C90.4714 103.345 90.9792 102.954 91.6172 102.668C92.2617 102.382 92.9681 102.238 93.7363 102.238C94.9538 102.238 95.9076 102.544 96.5977 103.156C97.2878 103.762 97.6458 104.598 97.6719 105.666V110.529C97.6719 111.499 97.7956 112.271 98.043 112.844V113H96.1484ZM93.1504 111.623C93.7168 111.623 94.2539 111.477 94.7617 111.184C95.2695 110.891 95.6374 110.51 95.8652 110.041V107.873H94.4492C92.2357 107.873 91.1289 108.521 91.1289 109.816C91.1289 110.383 91.3177 110.826 91.6953 111.145C92.0729 111.464 92.5579 111.623 93.1504 111.623ZM102.203 111.525H108.385V113H99.9961V111.672L105.826 103.928H100.084V102.434H108.092V103.713L102.203 111.525ZM112.389 113H110.582V98H112.389V113ZM114.811 107.619C114.811 106.584 115.012 105.653 115.416 104.826C115.826 103.999 116.393 103.361 117.115 102.912C117.844 102.463 118.674 102.238 119.605 102.238C121.044 102.238 122.206 102.736 123.092 103.732C123.984 104.729 124.43 106.053 124.43 107.707V107.834C124.43 108.863 124.231 109.787 123.834 110.607C123.443 111.421 122.88 112.056 122.145 112.512C121.415 112.967 120.576 113.195 119.625 113.195C118.193 113.195 117.031 112.697 116.139 111.701C115.253 110.705 114.811 109.387 114.811 107.746V107.619ZM116.627 107.834C116.627 109.006 116.897 109.947 117.438 110.656C117.984 111.366 118.714 111.721 119.625 111.721C120.543 111.721 121.272 111.363 121.812 110.646C122.353 109.924 122.623 108.915 122.623 107.619C122.623 106.46 122.346 105.523 121.793 104.807C121.246 104.084 120.517 103.723 119.605 103.723C118.714 103.723 117.994 104.077 117.447 104.787C116.9 105.497 116.627 106.512 116.627 107.834ZM137.809 110.197C137.809 109.709 137.623 109.331 137.252 109.064C136.887 108.791 136.246 108.557 135.328 108.361C134.417 108.166 133.691 107.932 133.15 107.658C132.617 107.385 132.219 107.059 131.959 106.682C131.705 106.304 131.578 105.855 131.578 105.334C131.578 104.468 131.943 103.736 132.672 103.137C133.408 102.538 134.345 102.238 135.484 102.238C136.682 102.238 137.652 102.548 138.395 103.166C139.143 103.785 139.518 104.576 139.518 105.539H137.701C137.701 105.044 137.49 104.618 137.066 104.26C136.65 103.902 136.122 103.723 135.484 103.723C134.827 103.723 134.312 103.866 133.941 104.152C133.57 104.439 133.385 104.813 133.385 105.275C133.385 105.712 133.557 106.04 133.902 106.262C134.247 106.483 134.869 106.695 135.768 106.896C136.673 107.098 137.405 107.339 137.965 107.619C138.525 107.899 138.938 108.238 139.205 108.635C139.479 109.025 139.615 109.504 139.615 110.07C139.615 111.014 139.238 111.773 138.482 112.346C137.727 112.912 136.747 113.195 135.543 113.195C134.697 113.195 133.948 113.046 133.297 112.746C132.646 112.447 132.135 112.03 131.764 111.496C131.399 110.956 131.217 110.373 131.217 109.748H133.023C133.056 110.354 133.297 110.835 133.746 111.193C134.202 111.545 134.801 111.721 135.543 111.721C136.227 111.721 136.773 111.584 137.184 111.311C137.6 111.031 137.809 110.66 137.809 110.197ZM143.932 113H142.125V102.434H143.932V113ZM141.979 99.6309C141.979 99.3379 142.066 99.0905 142.242 98.8887C142.424 98.6868 142.691 98.5859 143.043 98.5859C143.395 98.5859 143.661 98.6868 143.844 98.8887C144.026 99.0905 144.117 99.3379 144.117 99.6309C144.117 99.9238 144.026 100.168 143.844 100.363C143.661 100.559 143.395 100.656 143.043 100.656C142.691 100.656 142.424 100.559 142.242 100.363C142.066 100.168 141.979 99.9238 141.979 99.6309ZM148.531 102.434L148.58 103.605C149.355 102.694 150.4 102.238 151.715 102.238C153.193 102.238 154.199 102.805 154.732 103.938C155.084 103.43 155.54 103.02 156.1 102.707C156.666 102.395 157.333 102.238 158.102 102.238C160.419 102.238 161.598 103.465 161.637 105.92V113H159.83V106.027C159.83 105.272 159.658 104.709 159.312 104.338C158.967 103.96 158.388 103.771 157.574 103.771C156.904 103.771 156.347 103.973 155.904 104.377C155.462 104.774 155.204 105.311 155.133 105.988V113H153.316V106.076C153.316 104.54 152.564 103.771 151.061 103.771C149.876 103.771 149.065 104.276 148.629 105.285V113H146.822V102.434H148.531ZM173.297 107.834C173.297 109.442 172.929 110.738 172.193 111.721C171.458 112.704 170.462 113.195 169.205 113.195C167.923 113.195 166.913 112.788 166.178 111.975V117.062H164.371V102.434H166.021L166.109 103.605C166.845 102.694 167.867 102.238 169.176 102.238C170.445 102.238 171.448 102.717 172.184 103.674C172.926 104.631 173.297 105.962 173.297 107.668V107.834ZM171.49 107.629C171.49 106.438 171.236 105.497 170.729 104.807C170.221 104.117 169.524 103.771 168.639 103.771C167.545 103.771 166.725 104.257 166.178 105.227V110.275C166.718 111.239 167.545 111.721 168.658 111.721C169.524 111.721 170.211 111.379 170.719 110.695C171.233 110.005 171.49 108.983 171.49 107.629ZM177.564 113H175.758V98H177.564V113ZM184.85 113.195C183.417 113.195 182.252 112.727 181.354 111.789C180.455 110.845 180.006 109.585 180.006 108.01V107.678C180.006 106.63 180.204 105.695 180.602 104.875C181.005 104.048 181.565 103.404 182.281 102.941C183.004 102.473 183.785 102.238 184.625 102.238C185.999 102.238 187.066 102.691 187.828 103.596C188.59 104.501 188.971 105.796 188.971 107.482V108.234H181.812C181.839 109.276 182.141 110.119 182.721 110.764C183.307 111.402 184.049 111.721 184.947 111.721C185.585 111.721 186.126 111.59 186.568 111.33C187.011 111.07 187.398 110.725 187.73 110.295L188.834 111.154C187.949 112.515 186.62 113.195 184.85 113.195ZM184.625 103.723C183.896 103.723 183.284 103.99 182.789 104.523C182.294 105.051 181.988 105.793 181.871 106.75H187.164V106.613C187.112 105.695 186.865 104.986 186.422 104.484C185.979 103.977 185.38 103.723 184.625 103.723Z" fill="#003450"/>
<path d="M43.7031 24.6095C38.1191 32.3914 26.8942 49.9716 26.8942 49.9716L0 49.9716C0 49.9716 14.1309 28.2448 21.1393 18.3613C22.9057 15.9188 24.5011 13.4479 26.5524 11.0622C28.8885 8.27889 31.5095 5.55239 34.9853 3.0815C36.4081 1.97297 38.3935 1.07157 40.7402 0.468606C41.9461 0.18599 43.2541 0.0277312 44.5857 0.0033289C45.9173 -0.0210734 47.2451 0.088884 48.4894 0.326601C51.3953 0.894622 53.7884 1.97386 55.6688 3.19511C59.0305 5.41039 61.0818 8.05168 62.6202 10.693C68.0086 18.7842 70.5718 27.2762 70.1985 35.7995C70.0845 39.9176 69.1159 46.0239 67.6914 50L43.7601 50C43.7601 50 45.1846 46.8759 50.8825 38.2704C51.7372 36.9639 52.7628 35.6575 53.3326 34.2942C54.1752 32.2765 54.5953 30.2206 54.5862 28.1596C54.4152 26.3135 54.1873 24.4107 52.8198 22.6782C52.25 22.0534 51.5663 21.3718 50.1988 21.1162C49.0592 20.8889 47.9196 21.2014 47.1219 21.599C45.4695 22.3942 44.5578 23.5302 43.7031 24.6095Z" fill="#003450"/>
<path d="M43.6587 88.3905C49.2427 80.6086 60.4676 63.0284 60.4676 63.0284H87.3618C87.3618 63.0284 73.2309 84.7552 66.2225 94.6387C64.4561 97.0812 62.8607 99.5521 60.8095 101.938C58.4733 104.721 55.8523 107.448 52.3765 109.918C50.9537 111.027 48.9684 111.928 46.6216 112.531C45.4157 112.814 44.1077 112.972 42.7761 112.997C41.4445 113.021 40.1167 112.911 38.8724 112.673C35.9665 112.105 33.5734 111.026 31.693 109.805C28.3313 107.59 26.28 104.948 24.7416 102.307C19.3532 94.2158 16.79 85.7238 17.1633 77.2005C17.2773 73.0824 18.2459 66.9761 19.6704 63H43.6017C43.6017 63 42.1772 66.1241 36.4793 74.7296C35.6246 76.0361 34.599 77.3425 34.0292 78.7058C33.1866 80.7235 32.7666 82.7794 32.7757 84.8404C32.9466 86.6865 33.1745 88.5893 34.542 90.3218C35.1118 90.9466 35.7955 91.6282 37.163 91.8838C38.3026 92.1111 39.4422 91.7986 40.2399 91.401C41.8923 90.6058 42.804 89.4698 43.6587 88.3905Z" fill="#003450"/>
<path d="M109.369 56.3864C104.545 54.9996 101.029 53.3004 98.8223 51.2887C96.6348 49.2574 95.541 46.7574 95.541 43.7887C95.541 40.4293 96.8789 37.6559 99.5547 35.4684C102.25 33.2614 105.746 32.1578 110.043 32.1578C112.973 32.1578 115.58 32.7242 117.865 33.8571C120.17 34.9899 121.947 36.5524 123.197 38.5446C124.467 40.5367 125.102 42.7145 125.102 45.0778H119.447C119.447 42.4996 118.627 40.4781 116.986 39.0133C115.346 37.5289 113.031 36.7867 110.043 36.7867C107.27 36.7867 105.102 37.402 103.539 38.6324C101.996 39.8434 101.225 41.5328 101.225 43.7008C101.225 45.4391 101.957 46.9137 103.422 48.1246C104.906 49.316 107.416 50.4098 110.951 51.4059C114.506 52.402 117.279 53.5055 119.271 54.7164C121.283 55.9078 122.768 57.3043 123.725 58.9059C124.701 60.5074 125.189 62.3922 125.189 64.5602C125.189 68.0172 123.842 70.7906 121.146 72.8805C118.451 74.9508 114.848 75.986 110.336 75.986C107.406 75.986 104.672 75.4293 102.133 74.316C99.5938 73.1832 97.6309 71.6403 96.2441 69.6871C94.877 67.734 94.1934 65.5172 94.1934 63.0367H99.8477C99.8477 65.6149 100.795 67.6559 102.689 69.1598C104.604 70.6442 107.152 71.3864 110.336 71.3864C113.305 71.3864 115.58 70.7809 117.162 69.5699C118.744 68.359 119.535 66.7086 119.535 64.6188C119.535 62.5289 118.803 60.9176 117.338 59.7848C115.873 58.6324 113.217 57.4996 109.369 56.3864ZM159.643 67.9293L165.736 43.7008H171.156L161.928 75.4H157.533L149.828 51.3766L142.328 75.4H137.934L128.734 43.7008H134.125L140.365 67.4313L147.748 43.7008H152.113L159.643 67.9293ZM175.258 59.2574C175.258 56.152 175.863 53.359 177.074 50.8785C178.305 48.3981 180.004 46.484 182.172 45.1364C184.359 43.7887 186.85 43.1149 189.643 43.1149C193.959 43.1149 197.445 44.609 200.102 47.5973C202.777 50.5856 204.115 54.5602 204.115 59.5211V59.902C204.115 62.9879 203.52 65.7614 202.328 68.2223C201.156 70.6637 199.467 72.568 197.26 73.9352C195.072 75.3024 192.553 75.986 189.701 75.986C185.404 75.986 181.918 74.4918 179.242 71.5035C176.586 68.5153 175.258 64.5602 175.258 59.6383V59.2574ZM180.707 59.902C180.707 63.4176 181.518 66.2399 183.139 68.3688C184.779 70.4977 186.967 71.5621 189.701 71.5621C192.455 71.5621 194.643 70.4879 196.264 68.3395C197.885 66.1715 198.695 63.1442 198.695 59.2574C198.695 55.7809 197.865 52.9684 196.205 50.8199C194.564 48.652 192.377 47.568 189.643 47.568C186.967 47.568 184.809 48.6324 183.168 50.7614C181.527 52.8903 180.707 55.9371 180.707 59.902ZM209.477 59.2574C209.477 56.152 210.082 53.359 211.293 50.8785C212.523 48.3981 214.223 46.484 216.391 45.1364C218.578 43.7887 221.068 43.1149 223.861 43.1149C228.178 43.1149 231.664 44.609 234.32 47.5973C236.996 50.5856 238.334 54.5602 238.334 59.5211V59.902C238.334 62.9879 237.738 65.7614 236.547 68.2223C235.375 70.6637 233.686 72.568 231.479 73.9352C229.291 75.3024 226.771 75.986 223.92 75.986C219.623 75.986 216.137 74.4918 213.461 71.5035C210.805 68.5153 209.477 64.5602 209.477 59.6383V59.2574ZM214.926 59.902C214.926 63.4176 215.736 66.2399 217.357 68.3688C218.998 70.4977 221.186 71.5621 223.92 71.5621C226.674 71.5621 228.861 70.4879 230.482 68.3395C232.104 66.1715 232.914 63.1442 232.914 59.2574C232.914 55.7809 232.084 52.9684 230.424 50.8199C228.783 48.652 226.596 47.568 223.861 47.568C221.186 47.568 219.027 48.6324 217.387 50.7614C215.746 52.8903 214.926 55.9371 214.926 59.902ZM264.701 72.2653C262.592 74.7457 259.496 75.986 255.414 75.986C252.035 75.986 249.457 75.0094 247.68 73.0563C245.922 71.0836 245.033 68.1735 245.014 64.3258V43.7008H250.434V64.1793C250.434 68.984 252.387 71.3864 256.293 71.3864C260.434 71.3864 263.188 69.8434 264.555 66.7574V43.7008H269.975V75.4H264.818L264.701 72.2653Z" fill="#003450"/>
</svg>
